<svg id="Calque_1" data-name="Calque 1" xmlns="http://www.w3.org/2000/svg" viewBox="0 0 800 800"><defs><style>.cls-1{fill:none;}.cls-2{fill:#ff8906;fill-rule:evenodd;}</style></defs><title>chart-bar-square-svgrepo-com</title><rect class="cls-1" width="800" height="800"/><path class="cls-2" d="M533.3,233.3a33.29,33.29,0,0,1,33.3,33.3V533.3a33.3,33.3,0,0,1-66.6,0V266.7A33.37,33.37,0,0,1,533.3,233.3ZM400,300a33.29,33.29,0,0,1,33.3,33.3v200a33.3,33.3,0,1,1-66.6,0v-200A33.29,33.29,0,0,1,400,300ZM300,366.7a33.3,33.3,0,0,0-66.6,0V533.4a33.3,33.3,0,0,0,66.6,0ZM241.7,79.6C285,70,337.5,66.7,400,66.7S515,70,558.3,79.6c43.7,9.7,80,26.3,107.9,54.2s44.5,64.2,54.2,107.9C730,285,733.3,337.5,733.3,400S730,515,720.4,558.3c-9.7,43.7-26.3,80-54.2,107.9S602,710.7,558.3,720.4C515,730,462.5,733.3,400,733.3S285,730,241.7,720.4c-43.7-9.7-80-26.3-107.9-54.2S89.3,602,79.6,558.3C70,515,66.7,462.5,66.7,400S70,285,79.6,241.7c9.7-43.7,26.3-80,54.2-107.9S198,89.3,241.7,79.6Z"/></svg>