<svg id="Calque_1" data-name="Calque 1" xmlns="http://www.w3.org/2000/svg" viewBox="0 0 800 800"><defs><style>.cls-1{fill:#fff;}.cls-2{fill:#ff8906;fill-rule:evenodd;}</style></defs><title>logo</title><rect class="cls-1" width="800" height="800"/><path class="cls-2" d="M533.33,233.33a33.34,33.34,0,0,1,33.34,33.34V533.33a33.34,33.34,0,1,1-66.67,0V266.67A33.34,33.34,0,0,1,533.33,233.33ZM400,300a33.33,33.33,0,0,1,33.33,33.33v200a33.33,33.33,0,1,1-66.66,0v-200A33.33,33.33,0,0,1,400,300ZM300,366.67a33.34,33.34,0,1,0-66.67,0V533.33a33.34,33.34,0,1,0,66.67,0ZM241.67,79.59C285,70,337.48,66.67,400,66.67S515,70,558.33,79.59c43.67,9.71,80,26.28,107.88,54.2S710.7,198,720.41,241.67C730,285,733.33,337.48,733.33,400S730,515,720.41,558.33c-9.71,43.67-26.28,80-54.2,107.88S602,710.7,558.33,720.41C515,730,462.52,733.33,400,733.33S285,730,241.67,720.41c-43.67-9.71-80-26.28-107.88-54.2S89.3,602,79.59,558.33C70,515,66.67,462.52,66.67,400S70,285,79.59,241.67c9.71-43.67,26.28-80,54.2-107.88S198,89.3,241.67,79.59Z"/></svg>