<svg xmlns="http://www.w3.org/2000/svg" version="1.1" xmlns:xlink="http://www.w3.org/1999/xlink" xmlns:svgjs="http://svgjs.com/svgjs" width="1440" height="560" preserveAspectRatio="none" viewBox="0 0 1440 560"><g mask="url(&quot;#SvgjsMask1001&quot;)" fill="none"><path d="M1232.05 136.87a12.66 12.66 0 1 0 7.18 24.29z" fill="#e73635"></path><path d="M119.89 389.46L132.17 389.46L132.17 411.26L119.89 411.26z" fill="#037b0b"></path><path d="M1236.89 222.32L1287.66 222.32L1287.66 249.3L1236.89 249.3z" fill="#d3b714"></path><path d="M767.51 463.8 a53.74 53.74 0 1 0 107.48 0 a53.74 53.74 0 1 0 -107.48 0z" fill="#e73635"></path><path d="M351.33 261.94L381.02 261.94L381.02 291.63L351.33 291.63z" fill="#e73635"></path><path d="M134.38 403.13a5.12 5.12 0 1 0-3.77 9.52z" stroke="#e73635"></path><path d="M288.53 539.91a40.85 40.85 0 1 0 80.52 13.84z" fill="#037b0b"></path><path d="M706.73 139.87L760.07 139.87L760.07 184.4L706.73 184.4z" fill="#037b0b"></path><path d="M1281.83 184.36L1292.53 184.36L1292.53 185.34L1281.83 185.34z" stroke="#e73635"></path><path d="M359.63 260.25L402.67 260.25L402.67 312.55L359.63 312.55z" fill="#e73635"></path><path d="M896.92 538.83L902.02 538.83L902.02 565.4L896.92 565.4z" fill="#037b0b"></path><path d="M1036.59 443.48a1.15 1.15 0 1 0-0.01-2.3z" stroke="#d3b714"></path><path d="M736.6 45.34a1.28 1.28 0 1 0-1.73-1.89z" fill="#037b0b"></path><path d="M410.89 198.68L435.32 198.68L435.32 245.63L410.89 245.63z" fill="#e73635"></path><path d="M490.43 476.78L507.7 476.78L507.7 494.05L490.43 494.05z" fill="#e73635"></path><path d="M822.01 10.41L866.91 10.41L866.91 30.22L822.01 30.22z" fill="#e73635"></path><path d="M613.17 282.47 a15.02 15.02 0 1 0 30.04 0 a15.02 15.02 0 1 0 -30.04 0z" fill="#d3b714"></path><path d="M1078.7 79.66 a14.08 14.08 0 1 0 28.16 0 a14.08 14.08 0 1 0 -28.16 0z" fill="#e73635"></path><path d="M764.83 477.56 a4.87 4.87 0 1 0 9.74 0 a4.87 4.87 0 1 0 -9.74 0z" stroke="#e73635"></path><path d="M1096.42 363.14L1122.67 363.14L1122.67 389.39L1096.42 389.39z" stroke="#d3b714"></path><path d="M714.67 471.04 a10.13 10.13 0 1 0 20.26 0 a10.13 10.13 0 1 0 -20.26 0z" stroke="#e73635"></path><path d="M248.83 410L263.71 410L263.71 458.04L248.83 458.04z" stroke="#e73635"></path><path d="M270.75 192.44L284.89 192.44L284.89 206.58L270.75 206.58z" fill="#d3b714"></path><path d="M1364.35 64.05a3.72 3.72 0 1 0 6.68-3.28z" fill="#d3b714"></path><path d="M675.08 164.28L724.74 164.28L724.74 213.94L675.08 213.94z" stroke="#e73635"></path><path d="M909.16 415.21 a39.93 39.93 0 1 0 79.86 0 a39.93 39.93 0 1 0 -79.86 0z" stroke="#037b0b"></path><path d="M944.54 88.5 a39.67 39.67 0 1 0 79.34 0 a39.67 39.67 0 1 0 -79.34 0z" fill="#e73635"></path><path d="M688.01 310.35L697.28 310.35L697.28 319.62L688.01 319.62z" stroke="#e73635"></path><path d="M455.98 426.35L484.58 426.35L484.58 454.95L455.98 454.95z" fill="#e73635"></path><path d="M1418.1 163.83a27.92 27.92 0 1 0-47.4 29.52z" stroke="#e73635"></path><path d="M33.41 265.84L45.27 265.84L45.27 277.7L33.41 277.7z" fill="#d3b714"></path><path d="M610.56 196.3a29.31 29.31 0 1 0 20.73 54.83z" stroke="#037b0b"></path><path d="M367.73 255.06L411.87 255.06L411.87 299.2L367.73 299.2z" fill="#037b0b"></path></g><defs><mask id="SvgjsMask1001"><rect width="1440" height="560" fill="#ffffff"></rect></mask></defs></svg>