<?xml version="1.0" encoding="utf-8"?>
<!-- Generator: Adobe Illustrator 23.0.3, SVG Export Plug-In . SVG Version: 6.00 Build 0)  -->
<svg version="1.1" xmlns="http://www.w3.org/2000/svg" xmlns:xlink="http://www.w3.org/1999/xlink" x="0px" y="0px"
	 viewBox="0 0 238.95 219.85" style="enable-background:new 0 0 238.95 219.85;" xml:space="preserve">
<style type="text/css">
	.st0{fill:#F15A24;}
</style>
<g id="Calque_2">
</g>
<g id="Calque_1">
	<path class="st0" d="M45.67,188.6L45.67,188.6c-4.31,0-7.81-3.5-7.81-7.81V52.75c0-4.31,3.5-7.81,7.81-7.81h0
		c4.31,0,7.81,3.5,7.81,7.81v128.04C53.48,185.1,49.99,188.6,45.67,188.6z"/>
	<path class="st0" d="M121.06,188.6L121.06,188.6c-4.31,0-7.81-3.5-7.81-7.81v-76.3c0-4.31,3.5-7.81,7.81-7.81h0
		c4.31,0,7.81,3.5,7.81,7.81v76.3C128.87,185.1,125.37,188.6,121.06,188.6z"/>
	<path class="st0" d="M196.45,188.6L196.45,188.6c-4.31,0-7.81-3.5-7.81-7.81V62.96c0-4.31,3.5-7.81,7.81-7.81h0
		c4.31,0,7.81,3.5,7.81,7.81v117.83C204.26,185.1,200.76,188.6,196.45,188.6z"/>
</g>
</svg>
